<svg width="96" height="17" viewBox="0 0 96 17" fill="none" xmlns="http://www.w3.org/2000/svg">
<path d="M8.51948 1.625C9.1214 1.625 10.0427 4.16625 10.4636 5.43013C10.6014 5.8437 10.9837 6.13054 11.4192 6.14904C12.7373 6.20505 15.375 6.39722 15.375 7.0384C15.375 7.66696 13.5161 9.17543 12.5322 9.92976C12.1816 10.1986 12.0365 10.6604 12.1687 11.082C12.5631 12.34 13.2755 14.8755 12.7573 15.3009C12.2506 15.717 10.2147 14.2326 9.15246 13.4009C8.77021 13.1016 8.22949 13.1012 7.84719 13.4004C6.78473 14.2321 4.75246 15.717 4.28166 15.3009C3.79912 14.8745 4.47615 12.3275 4.84741 11.0727C4.97086 10.6555 4.82425 10.2029 4.47885 9.93826C3.49798 9.18681 1.625 7.66933 1.625 7.0384C1.625 6.3962 4.2711 6.20444 5.5871 6.14878C6.0197 6.13048 6.3998 5.84769 6.53973 5.43793C6.97041 4.17673 7.91633 1.625 8.51948 1.625Z" fill="#F8B319" stroke="#F8B319" stroke-width="2" stroke-linecap="round" stroke-linejoin="round"/>
<path d="M28.5195 1.625C29.1214 1.625 30.0427 4.16625 30.4636 5.43013C30.6014 5.8437 30.9837 6.13054 31.4192 6.14904C32.7373 6.20505 35.375 6.39722 35.375 7.0384C35.375 7.66696 33.5161 9.17543 32.5322 9.92976C32.1816 10.1986 32.0365 10.6604 32.1687 11.082C32.5631 12.34 33.2755 14.8755 32.7573 15.3009C32.2506 15.717 30.2147 14.2326 29.1525 13.4009C28.7702 13.1016 28.2295 13.1012 27.8472 13.4004C26.7847 14.2321 24.7525 15.717 24.2817 15.3009C23.7991 14.8745 24.4761 12.3275 24.8474 11.0727C24.9709 10.6555 24.8243 10.2029 24.4789 9.93826C23.498 9.18681 21.625 7.66933 21.625 7.0384C21.625 6.3962 24.2711 6.20444 25.5871 6.14878C26.0197 6.13048 26.3998 5.84769 26.5397 5.43793C26.9704 4.17673 27.9163 1.625 28.5195 1.625Z" fill="#F8B319" stroke="#F8B319" stroke-width="2" stroke-linecap="round" stroke-linejoin="round"/>
<path d="M48.5195 1.625C49.1214 1.625 50.0427 4.16625 50.4636 5.43013C50.6014 5.8437 50.9837 6.13054 51.4192 6.14904C52.7373 6.20505 55.375 6.39722 55.375 7.0384C55.375 7.66696 53.5161 9.17543 52.5322 9.92976C52.1816 10.1986 52.0365 10.6604 52.1687 11.082C52.5631 12.34 53.2755 14.8755 52.7573 15.3009C52.2506 15.717 50.2147 14.2326 49.1525 13.4009C48.7702 13.1016 48.2295 13.1012 47.8472 13.4004C46.7847 14.2321 44.7525 15.717 44.2817 15.3009C43.7991 14.8745 44.4761 12.3275 44.8474 11.0727C44.9709 10.6555 44.8243 10.2029 44.4789 9.93826C43.498 9.18681 41.625 7.66933 41.625 7.0384C41.625 6.3962 44.2711 6.20444 45.5871 6.14878C46.0197 6.13048 46.3998 5.84769 46.5397 5.43793C46.9704 4.17673 47.9163 1.625 48.5195 1.625Z" fill="#F8B319" stroke="#F8B319" stroke-width="2" stroke-linecap="round" stroke-linejoin="round"/>
<path d="M68.5195 1.625C69.1214 1.625 70.0427 4.16625 70.4636 5.43013C70.6014 5.8437 70.9837 6.13054 71.4192 6.14904C72.7373 6.20505 75.375 6.39722 75.375 7.0384C75.375 7.66696 73.5161 9.17543 72.5322 9.92976C72.1816 10.1986 72.0365 10.6604 72.1687 11.082C72.5631 12.34 73.2755 14.8755 72.7573 15.3009C72.2506 15.717 70.2147 14.2326 69.1525 13.4009C68.7702 13.1016 68.2295 13.1012 67.8472 13.4004C66.7847 14.2321 64.7525 15.717 64.2817 15.3009C63.7991 14.8745 64.4761 12.3275 64.8474 11.0727C64.9709 10.6555 64.8243 10.2029 64.4789 9.93826C63.498 9.18681 61.625 7.66933 61.625 7.0384C61.625 6.3962 64.2711 6.20444 65.5871 6.14878C66.0197 6.13048 66.3998 5.84769 66.5397 5.43793C66.9704 4.17673 67.9163 1.625 68.5195 1.625Z" fill="#F8B319" stroke="#F8B319" stroke-width="2" stroke-linecap="round" stroke-linejoin="round"/>
<path d="M87.8743 2.26441C88.1454 1.81152 88.5448 2.03216 88.5741 2.55916C88.7193 5.16932 89.0666 12.3811 88.5033 12.8722C88.5007 12.8745 88.5011 12.8741 88.4985 12.8763C88.4145 12.9465 84.9187 15.8639 84.2817 15.3009C83.7991 14.8745 84.4761 12.3275 84.8474 11.0727C84.9709 10.6555 84.8243 10.2029 84.4789 9.93826C83.498 9.18682 81.625 7.66933 81.625 7.0384C81.625 6.3962 84.2711 6.20444 85.5871 6.14878C86.0197 6.13048 86.3998 5.84769 86.5397 5.43793C86.8348 4.57398 87.3716 3.10444 87.8743 2.26441Z" fill="#F8B319"/>
<path d="M87.8743 2.26441C88.1454 1.81152 88.5448 2.03216 88.5741 2.55916C88.7193 5.16932 89.0666 12.3811 88.5033 12.8722C88.5007 12.8745 88.5011 12.8741 88.4985 12.8763C88.4145 12.9465 84.9187 15.8639 84.2817 15.3009C83.7991 14.8745 84.4761 12.3275 84.8474 11.0727C84.9709 10.6555 84.8243 10.2029 84.4789 9.93826C83.498 9.18682 81.625 7.66933 81.625 7.0384C81.625 6.3962 84.2711 6.20444 85.5871 6.14878C86.0197 6.13048 86.3998 5.84769 86.5397 5.43793C86.8348 4.57398 87.3716 3.10444 87.8743 2.26441Z" stroke="#F8B319" stroke-width="2" stroke-linecap="round" stroke-linejoin="round"/>
</svg>
