<svg width="24" height="18" viewBox="0 0 24 18" fill="none" xmlns="http://www.w3.org/2000/svg">
<path fill-rule="evenodd" clip-rule="evenodd" d="M5 1.296C5 0.628658 4.36871 0.130986 3.74865 0.377714C0.806956 1.54824 0 3.98146 0 8.70574C0 16.3595 2.118 17.9999 12 17.9999C21.882 17.9999 24 16.3595 24 8.70574C24 3.98146 23.193 1.54824 20.2513 0.377714C19.6313 0.130986 19 0.628658 19 1.296C19 1.74846 19.3009 2.13662 19.714 2.32119C20.0273 2.46119 20.2776 2.61212 20.4811 2.7697C21.4189 3.49607 22 4.88206 22 8.70574C22 12.5294 21.4189 13.9154 20.4811 14.6418C19.9576 15.0472 19.1238 15.4087 17.7047 15.653C16.2861 15.8972 14.436 15.9999 12 15.9999C9.56404 15.9999 7.71385 15.8972 6.2953 15.653C4.87622 15.4087 4.04241 15.0472 3.51891 14.6418C2.58107 13.9154 2 12.5294 2 8.70574C2 4.88206 2.58107 3.49607 3.51891 2.7697C3.72237 2.61212 3.97269 2.46119 4.28602 2.32119C4.69912 2.13662 5 1.74846 5 1.296Z" fill="#F9F9F9"/>
</svg>
